<svg xmlns="http://www.w3.org/2000/svg" xmlns:xlink="http://www.w3.org/1999/xlink" viewBox="0 0 339.38 339.38"><defs><style>.cls-1{fill:none;}.cls-2{isolation:isolate;}.cls-3{fill:#fcfcfc;}.cls-4{clip-path:url(#clip-path);}.cls-5{fill:#231f20;}.cls-6{clip-path:url(#clip-path-3);}.cls-7{fill:#6d40bc;}.cls-8{opacity:0.1;mix-blend-mode:multiply;}.cls-9{clip-path:url(#clip-path-4);}.cls-10{fill:#00adc4;}.cls-11{clip-path:url(#clip-path-5);}.cls-12{fill:#ff580c;}.cls-13{clip-path:url(#clip-path-6);}.cls-14{fill:#ffc300;}.cls-15{clip-path:url(#clip-path-7);}.cls-16{fill:#4d4d4d;}</style><clipPath id="clip-path" transform="translate(-118.15 -118.54)"><rect class="cls-1" x="178.9" y="179.29" width="217.89" height="217.89"/></clipPath><clipPath id="clip-path-3" transform="translate(-118.15 -118.54)"><path class="cls-1" d="M233.46,288.58a54.4,54.4,0,1,1,54.71,54h-.3a54.32,54.32,0,0,1-54.41-54m69.28-109.29-31.29.21c-3.18,1.53-4.58,4.07-4.86,7.57-.42,5.25-1.15,10.47-1.7,15.71a2,2,0,0,1-1.64,2,91.08,91.08,0,0,0-18.36,7.72,2.15,2.15,0,0,1-1.91-.16q-7-5.26-13.91-10.68c-3-2.35-6.44-2.22-9.17.53q-9.78,9.86-19.5,19.74c-2.1,2.14-2.11,5.91-.1,8.44,3.71,4.66,7.44,9.31,11.09,14a2.13,2.13,0,0,1,.17,1.9,89.92,89.92,0,0,0-7.45,18.48,2,2,0,0,1-2,1.67c-5.63.67-11.25,1.53-16.89,2.11-3.18.32-4.92,2.2-6.31,4.73l.21,31.3c1.56,3.25,4.19,4.61,7.74,4.88,5.19.4,10.36,1.15,15.54,1.68a2.11,2.11,0,0,1,2.12,1.79,87.87,87.87,0,0,0,7.66,18.2,2.15,2.15,0,0,1-.17,1.91c-3.51,4.68-7.08,9.3-10.67,13.92-2.36,3-2.21,6.46.53,9.17q9.64,9.6,19.34,19.17a6.44,6.44,0,0,0,8.94.34c4.62-3.68,9.26-7.33,13.85-11a1.48,1.48,0,0,1,2-.2A83.56,83.56,0,0,0,264.4,372a2,2,0,0,1,1.68,2c.61,5.18,1.42,10.33,1.89,15.52.32,3.54,1.71,6.16,5,7.68l31.3-.22c3.17-1.53,4.58-4.07,4.85-7.57.4-5.13,1.13-10.24,1.65-15.37a2.43,2.43,0,0,1,2-2.51,86.07,86.07,0,0,0,18.05-7.58,2.1,2.1,0,0,1,1.9.17c4.45,3.33,8.82,6.76,13.24,10.13,4.14,3.17,7.15,2.94,10.79-.77l18.17-18.6a6.46,6.46,0,0,0,.39-8.92c-3.69-4.62-7.37-9.23-11-13.9a2.11,2.11,0,0,1-.22-1.9,90.35,90.35,0,0,0,7.49-18.46,2,2,0,0,1,2-1.67c5.24-.62,10.45-1.43,15.69-1.92,3.49-.33,6-1.76,7.51-5q-.1-15.64-.22-31.29c-1.55-3.26-4.19-4.6-7.73-4.87-5.2-.41-10.36-1.15-15.54-1.69a2,2,0,0,1-2.05-1.64,84.52,84.52,0,0,0-7.78-18.33,1.49,1.49,0,0,1,.14-2c3.65-4.64,7.22-9.34,10.85-14a6.46,6.46,0,0,0-.48-8.92l-19.86-19.63a6.58,6.58,0,0,0-8.44-.12c-4.66,3.71-9.32,7.43-14,11.09a2.18,2.18,0,0,1-1.9.22,89.54,89.54,0,0,0-18.47-7.46,2,2,0,0,1-1.67-2c-.61-5.17-1.42-10.33-1.89-15.51C307.4,183.42,306,180.81,302.74,179.29Z"/></clipPath><clipPath id="clip-path-4" transform="translate(-118.15 -118.54)"><rect class="cls-1" x="186.75" y="271.99" width="183.38" height="183.38"/></clipPath><clipPath id="clip-path-5" transform="translate(-118.15 -118.54)"><rect class="cls-1" x="271.22" y="203.15" width="183.38" height="183.38"/></clipPath><clipPath id="clip-path-6" transform="translate(-118.15 -118.54)"><rect class="cls-1" x="202.2" y="117.87" width="183.38" height="183.38"/></clipPath><clipPath id="clip-path-7" transform="translate(-118.15 -118.54)"><rect class="cls-1" x="194.57" y="187.51" width="105.99" height="105.99"/></clipPath></defs><title>OSB Logo</title><g class="cls-2"><g id="Layer_1" data-name="Layer 1"><rect class="cls-3" x="36.23" y="36.23" width="266.92" height="266.92" rx="12" ry="12"/><g class="cls-4"><g class="cls-4"><path class="cls-5" d="M233.46,288.58a54.4,54.4,0,1,0,54.18-54.73,54.32,54.32,0,0,0-54.18,54.73m38-109.08,31.29-.21c3.26,1.52,4.65,4.13,5,7.68.47,5.18,1.28,10.34,1.89,15.51a2,2,0,0,0,1.67,2A89.54,89.54,0,0,1,329.75,212a2.18,2.18,0,0,0,1.9-.22c4.71-3.66,9.37-7.38,14-11.1a6.59,6.59,0,0,1,8.44.13L374,220.41a6.46,6.46,0,0,1,.48,8.92c-3.63,4.66-7.2,9.36-10.85,14a1.49,1.49,0,0,0-.14,2,84.52,84.52,0,0,1,7.78,18.33,2,2,0,0,0,2.05,1.64c5.18.54,10.34,1.28,15.54,1.69,3.54.27,6.18,1.61,7.73,4.86q.1,15.66.22,31.3c-1.48,3.2-4,4.63-7.51,5-5.24.49-10.45,1.3-15.69,1.92a2,2,0,0,0-2,1.67,90.6,90.6,0,0,1-7.49,18.45,2.13,2.13,0,0,0,.22,1.91c3.61,4.67,7.29,9.28,11,13.9a6.46,6.46,0,0,1-.39,8.92l-18.17,18.6c-3.64,3.71-6.65,3.94-10.79.77-4.42-3.37-8.79-6.8-13.24-10.13a2.13,2.13,0,0,0-1.9-.17,86.07,86.07,0,0,1-18.05,7.58,2.43,2.43,0,0,0-2,2.51c-.52,5.13-1.25,10.24-1.65,15.37-.27,3.5-1.68,6-4.85,7.57l-31.3.22c-3.26-1.52-4.65-4.14-5-7.68-.47-5.19-1.28-10.35-1.89-15.52a2,2,0,0,0-1.68-2A83.56,83.56,0,0,1,246,364.45a1.49,1.49,0,0,0-2,.2c-4.59,3.71-9.23,7.36-13.85,11a6.43,6.43,0,0,1-8.94-.34q-9.72-9.54-19.34-19.17c-2.74-2.71-2.89-6.14-.53-9.17,3.59-4.62,7.16-9.24,10.67-13.92a2.15,2.15,0,0,0,.17-1.91,87.87,87.87,0,0,1-7.66-18.2,2.11,2.11,0,0,0-2.12-1.79c-5.18-.53-10.35-1.28-15.54-1.68-3.55-.27-6.18-1.63-7.74-4.88l-.21-31.3c1.39-2.53,3.13-4.41,6.31-4.73,5.64-.58,11.26-1.44,16.89-2.11a2,2,0,0,0,2-1.67,89.92,89.92,0,0,1,7.45-18.48,2.13,2.13,0,0,0-.17-1.9c-3.65-4.72-7.38-9.37-11.09-14-2-2.53-2-6.3.1-8.44q9.73-9.89,19.5-19.74c2.73-2.75,6.15-2.88,9.17-.53q6.9,5.4,13.91,10.68a2.15,2.15,0,0,0,1.91.16,91.08,91.08,0,0,1,18.36-7.72,2,2,0,0,0,1.64-2c.55-5.24,1.28-10.46,1.7-15.71.28-3.5,1.68-6,4.86-7.57" transform="translate(-118.15 -118.54)"/></g><g class="cls-6"><rect class="cls-7" x="143" y="228.24" width="119.99" height="119.99" transform="translate(-262.51 109.42) rotate(-45)"/><g class="cls-8"><g class="cls-9"><polygon class="cls-5" points="84.44 254.13 161.87 331.56 246.72 246.72 161.87 161.87 84.44 254.13"/></g></g><rect class="cls-10" x="227.85" y="313.08" width="119.99" height="119.99" transform="translate(-297.65 194.27) rotate(-45)"/><g class="cls-8"><g class="cls-11"><polygon class="cls-5" points="161.5 177.88 254.13 254.95 331.19 177.88 246.35 93.04 161.5 177.88"/></g></g><rect class="cls-12" x="312.69" y="228.24" width="119.99" height="119.99" transform="translate(-212.8 229.41) rotate(-45)"/><g class="cls-8"><g class="cls-13"><polygon class="cls-5" points="92.48 92.6 177.32 177.45 255.07 85.51 177.32 7.76 92.48 92.6"/></g></g><rect class="cls-14" x="227.85" y="143.39" width="119.99" height="119.99" transform="translate(-177.66 144.57) rotate(-45)"/><g class="cls-8"><g class="cls-15"><polygon class="cls-5" points="84.85 84.85 169.69 169.69 177.14 162.25 84.97 84.72 84.85 84.85"/></g></g></g></g><circle class="cls-3" cx="169.69" cy="169.69" r="64.26"/><path class="cls-16" d="M239.07,288.23a19.16,19.16,0,0,1,1.38-7.42,16.33,16.33,0,0,1,3.83-5.67,16.81,16.81,0,0,1,5.84-3.59,22.24,22.24,0,0,1,14.76,0,16.77,16.77,0,0,1,5.83,3.59,16.2,16.2,0,0,1,3.83,5.67,20.66,20.66,0,0,1,0,14.85,16.2,16.2,0,0,1-3.83,5.67,16.92,16.92,0,0,1-5.83,3.59,22.41,22.41,0,0,1-14.76,0,17,17,0,0,1-5.84-3.59,16.33,16.33,0,0,1-3.83-5.67A19.21,19.21,0,0,1,239.07,288.23Zm7.82,0a12.54,12.54,0,0,0,.74,4.42,10.2,10.2,0,0,0,2.15,3.47,9.84,9.84,0,0,0,3.35,2.29,12,12,0,0,0,8.73,0,9.84,9.84,0,0,0,3.35-2.29,10.05,10.05,0,0,0,2.15-3.47,13.31,13.31,0,0,0,0-8.81,10,10,0,0,0-2.15-3.49,9.7,9.7,0,0,0-3.35-2.29,12,12,0,0,0-8.73,0,9.7,9.7,0,0,0-3.35,2.29,10.1,10.1,0,0,0-2.15,3.49A12.57,12.57,0,0,0,246.89,288.23Z" transform="translate(-118.15 -118.54)"/><path class="cls-16" d="M298.45,279.5a5.38,5.38,0,0,0-2.48-1.71,8.89,8.89,0,0,0-3-.55,7.75,7.75,0,0,0-1.69.19,6.87,6.87,0,0,0-1.64.6,3.67,3.67,0,0,0-1.25,1.09,3,3,0,0,0,.68,4,11,11,0,0,0,2.91,1.4c1.18.38,2.44.77,3.79,1.16a15.42,15.42,0,0,1,3.79,1.64,8.86,8.86,0,0,1,2.91,2.84,8.61,8.61,0,0,1,1.16,4.78,10.92,10.92,0,0,1-1.06,5,10,10,0,0,1-2.87,3.52,12.11,12.11,0,0,1-4.19,2.08,18.55,18.55,0,0,1-5.05.67,18.19,18.19,0,0,1-6.17-1,15.52,15.52,0,0,1-5.3-3.28l5.35-5.88a7.71,7.71,0,0,0,2.92,2.38,8.2,8.2,0,0,0,3.64.85,8,8,0,0,0,1.86-.22,5.82,5.82,0,0,0,1.68-.65,3.69,3.69,0,0,0,1.21-1.11,2.81,2.81,0,0,0,.46-1.59,2.92,2.92,0,0,0-1.18-2.44,11.14,11.14,0,0,0-3-1.52c-1.19-.41-2.48-.83-3.86-1.25a17.38,17.38,0,0,1-3.86-1.69,9.28,9.28,0,0,1-3-2.79,8,8,0,0,1-1.18-4.59,10,10,0,0,1,4-8.29,12.59,12.59,0,0,1,4.17-2.1,17.22,17.22,0,0,1,4.87-.7,19.34,19.34,0,0,1,5.59.82,13,13,0,0,1,4.87,2.75Z" transform="translate(-118.15 -118.54)"/><path class="cls-16" d="M309.8,271.16h12.73a32.05,32.05,0,0,1,4.46.31,12.13,12.13,0,0,1,4,1.26,7.61,7.61,0,0,1,2.89,2.63,8,8,0,0,1,1.11,4.48,7.15,7.15,0,0,1-1.62,4.8,8.81,8.81,0,0,1-4.26,2.72v.1a10,10,0,0,1,3.06.94,8.1,8.1,0,0,1,2.36,1.79,7.43,7.43,0,0,1,1.52,2.53,8.94,8.94,0,0,1,.53,3.08,8.13,8.13,0,0,1-1.16,4.51,9,9,0,0,1-3,2.92,13,13,0,0,1-4.12,1.59,22.22,22.22,0,0,1-4.56.48h-14Zm7.52,13.65h5.45a8.15,8.15,0,0,0,1.71-.19A4.79,4.79,0,0,0,326,284a3.37,3.37,0,0,0,1.09-1.16,3.5,3.5,0,0,0,.41-1.74,3.22,3.22,0,0,0-.46-1.76,3.3,3.3,0,0,0-1.18-1.08,5.87,5.87,0,0,0-1.64-.56,10.09,10.09,0,0,0-1.79-.16h-5.11Zm0,14.13h6.75a8.86,8.86,0,0,0,1.76-.19,4.68,4.68,0,0,0,1.62-.68,3.92,3.92,0,0,0,1.18-1.25,3.59,3.59,0,0,0,.46-1.88,3,3,0,0,0-.6-2,3.89,3.89,0,0,0-1.52-1.13,7.91,7.91,0,0,0-2-.53,14.25,14.25,0,0,0-2-.15h-5.69Z" transform="translate(-118.15 -118.54)"/></g></g></svg>